<mxfile host="app.diagrams.net" modified="2024-04-25T06:49:59.980Z" agent="Mozilla/5.0 (X11; Linux x86_64) AppleWebKit/537.36 (KHTML, like Gecko) Chrome/124.0.0.0 Safari/537.36" etag="PjxcDsjxjZaoTPgL7CqU" version="24.2.0" type="device">
  <diagram name="Page-1" id="JgHoNLqCAdngFuja939s">
    <mxGraphModel dx="1114" dy="1196" grid="0" gridSize="10" guides="1" tooltips="1" connect="1" arrows="1" fold="1" page="0" pageScale="1" pageWidth="1169" pageHeight="827" math="0" shadow="0">
      <root>
        <mxCell id="0" />
        <mxCell id="1" parent="0" />
        <mxCell id="ue5-9cwrh0cjAcBvodIm-1" value="" style="whiteSpace=wrap;html=1;aspect=fixed;" vertex="1" parent="1">
          <mxGeometry x="-65" y="-82" width="435" height="435" as="geometry" />
        </mxCell>
        <mxCell id="ue5-9cwrh0cjAcBvodIm-2" value="Linux -OS" style="text;html=1;align=center;verticalAlign=middle;whiteSpace=wrap;rounded=0;fontSize=16;" vertex="1" parent="1">
          <mxGeometry x="-65" y="323" width="110" height="30" as="geometry" />
        </mxCell>
      </root>
    </mxGraphModel>
  </diagram>
</mxfile>
